<svg width="45" height="53" viewBox="0 0 45 53" fill="none" xmlns="http://www.w3.org/2000/svg">
<path fill-rule="evenodd" clip-rule="evenodd" d="M4 24C6.20914 24 8 25.7909 8 28V45H25C27.2091 45 29 46.7909 29 49C29 51.2091 27.2091 53 25 53H0V28C0 25.7909 1.79086 24 4 24Z" fill="#58A9A5"/>
<path fill-rule="evenodd" clip-rule="evenodd" d="M41 24C38.7909 24 37 25.7909 37 28V45H20C17.7909 45 16 46.7909 16 49C16 51.2091 17.7909 53 20 53H45V28C45 25.7909 43.2091 24 41 24Z" fill="#58A9A5"/>
<path fill-rule="evenodd" clip-rule="evenodd" d="M43.7831 30.873C42.1964 32.4101 39.6641 32.3698 38.127 30.7831L26.0313 18.2967L14.2195 6.87557C12.6314 5.33995 12.5888 2.80765 14.1244 1.21952C15.66 -0.36862 18.1923 -0.411196 19.7805 1.12442L31.6863 12.6365L43.873 25.2169C45.4101 26.8036 45.3698 29.3359 43.7831 30.873Z" fill="#58A9A5"/>
<path fill-rule="evenodd" clip-rule="evenodd" d="M1.21688 30.873C2.80361 32.4101 5.33595 32.3698 6.87302 30.7831L18.9687 18.2967L30.7805 6.87557C32.3686 5.33995 32.4112 2.80765 30.8756 1.21952C29.34 -0.36862 26.8077 -0.411196 25.2195 1.12442L13.3137 12.6365L1.12698 25.2169C-0.410091 26.8036 -0.369842 29.3359 1.21688 30.873Z" fill="#58A9A5"/>
</svg>
